<svg width="137" height="30" viewBox="0 0 137 30" fill="none" xmlns="http://www.w3.org/2000/svg">
<path d="M137 29.0565H133.259L126.867 21.564L120.506 29.0565H116.787L125.001 19.3785L117.233 10.2765H120.974L126.862 17.1795L132.721 10.2765H136.441L128.727 19.3665L137 29.055V29.0565ZM105.364 30C99.5614 30 94.8582 25.3725 94.8582 19.665C94.8582 13.959 99.5629 9.3345 105.365 9.3345C111.167 9.3345 115.87 13.9605 115.87 19.6665C115.87 25.374 111.166 30 105.362 30H105.364ZM105.385 12.126C102.289 12.126 99.4996 13.9575 98.3148 16.77C97.7364 18.1454 97.5854 19.6621 97.8811 21.124C98.1769 22.5858 98.9058 23.9257 99.9739 24.9705C101.051 26.0247 102.415 26.7409 103.897 27.0307C105.379 27.3205 106.914 27.1711 108.311 26.601C109.702 26.0406 110.895 25.08 111.735 23.8417C112.576 22.6034 113.028 21.1436 113.033 19.6485C113.033 15.4935 109.608 12.126 105.385 12.126ZM81.0016 29.52C75.1227 29.52 73.3582 28.11 73.3582 28.11V0.8595H76.2247V10.74C77.7212 10.065 79.3561 9.735 81.0016 9.78C86.8068 9.78 91.513 13.938 91.513 19.641C91.513 25.3455 86.8023 29.52 80.9986 29.52H81.0016ZM81.0016 12.6045C79.2928 12.6275 77.6297 13.1576 76.2247 14.127V25.761C77.7118 26.4711 79.3552 26.7947 81.0016 26.7015C85.223 26.7015 88.6465 23.8005 88.6465 19.653C88.6465 15.5055 85.22 12.603 80.9986 12.603L81.0016 12.6045ZM63.8029 0.858H66.6693V29.0505H63.8029V0.858ZM54.2475 0.858H57.1139V29.0505H54.2475V0.858ZM46.0305 5.055C45.7201 5.05698 45.4123 4.99802 45.1248 4.88149C44.8373 4.76496 44.5756 4.59315 44.3547 4.37586C44.1339 4.15857 43.9581 3.90006 43.8375 3.61509C43.7169 3.33011 43.6538 3.02426 43.6518 2.715C43.6518 1.425 44.7177 0.3765 46.0305 0.3765C47.3448 0.3765 48.4092 1.425 48.4092 2.7165C48.4092 3.336 48.1593 3.9315 47.7121 4.371C47.2635 4.81027 46.6595 5.05598 46.0305 5.055ZM36.5685 29.0505L26.5419 19.1895L35.6185 10.2555H39.6713L30.5932 19.1895L40.6197 29.0505H36.5685ZM23.6679 29.0505V0.858H26.5343V29.0505H23.6679ZM19.1273 21.3825C19.1273 26.094 15.3124 29.5125 9.25126 29.5125C5.74716 29.4202 2.42175 27.9515 0 25.4265L2.0264 23.2215C3.92332 24.9975 6.15597 26.724 9.21212 26.724C12.607 26.724 16.2669 24.852 16.2669 21.489C16.2669 18.6975 14.0101 16.875 9.26782 15.438C3.8631 13.8165 1.12009 11.613 1.12009 7.467C1.12009 3.366 4.64897 0 9.67732 0C13.4335 0 15.7836 1.575 18.0704 3.585L16.0787 5.763C14.0734 4.014 12.1614 2.8305 9.81582 2.8305C6.90871 2.8305 4.03623 4.6755 4.03623 7.3305C4.03623 9.7365 5.44236 11.2695 10.4075 12.7635C14.9541 14.1405 19.1273 16.2735 19.1273 21.3825ZM47.5661 29.0505H44.6981V10.2555H47.5646V29.0505H47.5661Z" fill="#333333"/>
</svg>
